#!OML:ASF E:\CV Data\Top Level 1\Subject 1\Session 1\player.ASF
:FULLY-SPECIFIED
:DEGREES
1176
root 10.1311 16.9693 -1.06409 194.135 -128.665 -188.832
lowerback 9.65159 6.3382 3.09169
upperback 0.236365 8.84627 1.89671
thorax -4.96061 4.30047 -0.937679
lowerneck -15.4071 -1.00241 -10.657
upperneck 14.4509 -1.80375 16.1331
head 7.19874 -0.0496176 6.98714
rclavicle 1.04859e-013 1.66979e-014
rhumerus -8.90464 -22.7357 -65.3577
rradius 27.423
rwrist -11.87
rhand -29.4027 -4.4219
rfingers 7.12502
rthumb -2.74065 -34.384
lclavicle 1.04859e-013 1.66979e-014
lhumerus -56.554 41.1787 14.3467
lradius 39.7798
lwrist 19.8693
lhand -13.4309 36.4439
lfingers 7.12502
lthumb 12.6778 66.0391
rfemur -6.71939 -12.6403 16.2169
rtibia 35.6744
rfoot -23.1333 -18.9803
rtoes -14.5156
lfemur -31.0116 2.56256 2.10522
ltibia 34.0734
lfoot 0.456212 -1.46076
ltoes -26.9527
1177
root 10.1256 16.9683 -1.17146 194.076 -127.787 -188.849
lowerback 9.67297 6.26703 3.06275
upperback 0.30326 8.74471 1.88404
thorax -4.90737 4.25231 -0.920123
lowerneck -15.5642 -0.764982 -10.4862
upperneck 14.7382 -1.48271 15.8499
head 7.26632 0.0989092 6.90301
rclavicle -8.44835e-015 1.39149e-014
rhumerus -8.6016 -21.1975 -66.5408
rradius 28.0265
rwrist -12.7786
rhand -29.1789 -4.42927
rfingers 7.12502
rthumb -2.52453 -34.3941
lclavicle -8.44835e-015 1.39149e-014
lhumerus -54.9223 40.5283 15.7131
lradius 39.9165
lwrist 18.5689
lhand -13.775 35.8186
lfingers 7.12502
lthumb 12.3461 65.4341
rfemur -6.9726 -12.3015 16.2811
rtibia 35.7015
rfoot -23.3931 -18.5007
rtoes -14.3708
lfemur -30.5974 2.65518 2.46178
ltibia 33.7864
lfoot 1.26113 -1.05366
ltoes -26.8043
1178
root 10.1205 16.9685 -1.27931 194.03 -126.945 -188.887
lowerback 9.69853 6.1886 3.04841
upperback 0.371841 8.63581 1.88545
thorax -4.85494 4.20018 -0.89546
lowerneck -15.7102 -0.529622 -10.3192
upperneck 15.0187 -1.16153 15.5587
head 7.3316 0.245411 6.81673
rclavicle 3.47873e-014 -1.11319e-014
rhumerus -8.37323 -19.5956 -67.6817
rradius 28.6635
rwrist -13.6511
rhand -28.9118 -4.40539
rfingers 7.12502
rthumb -2.26652 -34.3731
lclavicle 3.47873e-014 -1.11319e-014
lhumerus -53.3519 39.8574 17.0518
lradius 40.1061
lwrist 17.3995
lhand -14.1699 35.2366
lfingers 7.12502
lthumb 11.9652 64.8747
rfemur -7.2089 -11.9504 16.357
rtibia 35.72
rfoot -23.6141 -17.9766
rtoes -14.3472
lfemur -30.1893 2.72423 2.83353
ltibia 33.4911
lfoot 2.10983 -0.650076
ltoes -26.5191
1179
root 10.1161 16.97 -1.38726 194.01 -126.141 -188.965
lowerback 9.7326 6.10464 3.05967
upperback 0.443755 8.52314 1.90301
thorax -4.80264 4.14561 -0.868278
lowerneck -15.8583 -0.301428 -10.1375
upperneck 15.2966 -0.847666 15.2408
head 7.39928 0.386287 6.71811
rclavicle -6.86801e-014 2.90226e-014
rhumerus -8.21496 -17.9569 -68.7772
rradius 29.3237
rwrist -14.4641
rhand -28.5717 -4.34927
rfingers 7.12502
rthumb -1.93802 -34.3202
lclavicle -6.86801e-014 2.90226e-014
lhumerus -51.8341 39.1717 18.3775
lradius 40.3572
lwrist 16.3515
lhand -14.592 34.6982
lfingers 7.12502
lthumb 11.5582 64.3595
rfemur -7.42746 -11.6084 16.4619
rtibia 35.7263
rfoot -23.8024 -17.4302
rtoes -14.4291
lfemur -29.7902 2.76067 3.23278
ltibia 33.1963
lfoot 3.00095 -0.239492
ltoes -26.0825
1180
root 10.1126 16.972 -1.49473 194.01 -125.38 -189.068
lowerback 9.76905 6.00845 3.09906
upperback 0.514738 8.39791 1.93328
thorax -4.7509 4.0842 -0.841943
lowerneck -15.9677 -0.072827 -9.96977
upperneck 15.5464 -0.529616 14.9259
head 7.45242 0.526242 6.62184
rclavicle -1.39149e-015 8.34896e-015
rhumerus -8.12684 -16.2712 -69.8287
rradius 30.0009
rwrist -15.2096
rhand -28.1854 -4.27195
rfingers 7.12502
rthumb -1.56498 -34.246
lclavicle -1.39149e-015 8.34896e-015
lhumerus -50.3972 38.4853 19.6545
lradius 40.6404
lwrist 15.3171
lhand -14.9478 34.1793
lfingers 7.12502
lthumb 11.2151 63.8596
rfemur -7.63643 -11.3039 16.5892
rtibia 35.7203
rfoot -23.9491 -16.8894
rtoes -14.6486
lfemur -29.4208 2.82557 3.6319
ltibia 32.9116
lfoot 3.92535 0.116627
ltoes -25.485
1181
root 10.11 16.975 -1.60182 194.033 -124.653 -189.196
lowerback 9.80755 5.90695 3.14552
upperback 0.586873 8.26714 1.98165
thorax -4.70104 4.01993 -0.800395
lowerneck -16.0591 0.15295 -9.81625
upperneck 15.7765 -0.211097 14.6137
head 7.49786 0.664416 6.52824
rclavicle 9.88954e-014 2.38542e-015
rhumerus -8.0969 -14.5645 -70.836
rradius 30.6894
rwrist -15.8846
rhand -27.7477 -4.17216
rfingers 7.12502
rthumb -1.1422 -34.1488
lclavicle 9.88954e-014 2.38542e-015
lhumerus -49.0147 37.8015 20.9083
lradius 40.9232
lwrist 14.2571
lhand -15.2418 33.7114
lfingers 7.12502
lthumb 10.9315 63.4068
rfemur -7.84091 -11.0321 16.7485
rtibia 35.7004
rfoot -24.071 -16.3842
rtoes -14.916
lfemur -29.0774 2.86727 4.04218
ltibia 32.6407
lfoot 4.8853 0.476725
ltoes -24.7449
1182
root 10.1083 16.9789 -1.70818 194.078 -123.955 -189.345
lowerback 9.84324 5.80363 3.1984
upperback 0.661589 8.13486 2.04267
thorax -4.64791 3.95491 -0.748696
lowerneck -16.1542 0.376864 -9.65271
upperneck 15.9891 0.106209 14.2956
head 7.54046 0.801497 6.43039
rclavicle -2.03754e-014 2.3059e-014
rhumerus -8.12947 -12.8399 -71.8
rradius 31.4006
rwrist -16.5214
rhand -27.2811 -4.06133
rfingers 7.12502
rthumb -0.691538 -34.04
lclavicle -2.03754e-014 2.3059e-014
lhumerus -47.6495 37.1032 22.1637
lradius 41.1736
lwrist 13.1593
lhand -15.4906 33.3391
lfingers 7.12502
lthumb 10.6916 63.0471
rfemur -8.04392 -10.7929 16.9396
rtibia 35.666
rfoot -24.188 -15.9279
rtoes -15.1075
lfemur -28.7645 2.88597 4.4571
ltibia 32.387
lfoot 5.87916 0.843584
ltoes -23.8967
1183
root 10.1077 16.9836 -1.81417 194.164 -123.29 -189.522
lowerback 9.87585 5.69935 3.24911
upperback 0.731572 8.00181 2.11954
thorax -4.60062 3.88947 -0.679542
lowerneck -16.2552 0.595102 -9.48349
upperneck 16.2006 0.415898 13.9749
head 7.58677 0.934624 6.33037
rclavicle -1.80795e-013 -1.35174e-014
rhumerus -8.2252 -11.1238 -72.7219
rradius 32.1339
rwrist -17.1108
rhand -26.7934 -3.94664
rfingers 7.12502
rthumb -0.220542 -33.9263
lclavicle -1.80795e-013 -1.35174e-014
lhumerus -46.284 36.3914 23.4236
lradius 41.3467
lwrist 11.9938
lhand -15.727 33.0784
lfingers 7.12502
lthumb 10.4635 62.798
rfemur -8.25623 -10.5767 17.1791
rtibia 35.6122
rfoot -24.3071 -15.5512
rtoes -15.1424
lfemur -28.4959 2.88263 4.88285
ltibia 32.1488
lfoot 6.90673 1.21636
ltoes -22.9227
1184
root 10.1081 16.989 -1.91943 194.294 -122.651 -189.727
lowerback 9.90061 5.59541 3.29734
upperback 0.796808 7.86928 2.20858
thorax -4.55587 3.82431 -0.596123
lowerneck -16.3697 0.810642 -9.29851
upperneck 16.4112 0.720339 13.65
head 7.63802 1.06562 6.22636
rclavicle -1.65985e-014 -7.95139e-015
rhumerus -8.37539 -9.45057 -73.6156
rradius 32.8837
rwrist -17.6373
rhand -26.2711 -3.82877
rfingers 7.12502
rthumb 0.283946 -33.8083
lclavicle -1.65985e-014 -7.95139e-015
lhumerus -44.9163 35.6413 24.6948
lradius 41.4387
lwrist 10.7792
lhand -15.9116 32.8785
lfingers 7.12502
lthumb 10.2855 62.607
rfemur -8.47269 -10.3588 17.4647
rtibia 35.5322
rfoot -24.4555 -15.2441
rtoes -14.8572
lfemur -28.2714 2.85962 5.31629
ltibia 31.9281
lfoot 7.966 1.59601
ltoes -21.7973
1185
root 10.1093 16.9952 -2.02382 194.468 -122.031 -189.958
lowerback 9.9194 5.49781 3.33242
upperback 0.850278 7.74473 2.31211
thorax -4.52352 3.7631 -0.491929
lowerneck -16.4736 1.01833 -9.09984
upperneck 16.6155 1.0136 13.3107
head 7.68894 1.18984 6.11381
rclavicle 1.08636e-013 4.05521e-014
rhumerus -8.59366 -7.84303 -74.4743
rradius 33.6523
rwrist -18.1023
rhand -25.718 -3.71576
rfingers 7.12502
rthumb 0.818099 -33.6939
lclavicle 1.08636e-013 4.05521e-014
lhumerus -43.5529 34.8442 25.9791
lradius 41.4488
lwrist 9.5262
lhand -16.0253 32.7216
lfingers 7.12502
lthumb 10.1757 62.4555
rfemur -8.69627 -10.1291 17.7972
rtibia 35.4195
rfoot -24.6078 -15.0475
rtoes -14.3746
lfemur -28.0892 2.81944 5.75267
ltibia 31.7277
lfoot 9.05181 1.98342
ltoes -20.4864
1186
root 10.111 17.0022 -2.12702 194.678 -121.417 -190.211
lowerback 9.93082 5.40642 3.35675
upperback 0.896279 7.62765 2.42458
thorax -4.49705 3.70567 -0.373387
lowerneck -16.5533 1.22277 -8.91362
upperneck 16.7991 1.30238 12.9901
head 7.73097 1.31155 6.00839
rclavicle 2.34566e-014 -4.77083e-015
rhumerus -8.86786 -6.31973 -75.3151
rradius 34.4301
rwrist -18.4995
rhand -25.1189 -3.59818
rfingers 7.12502
rthumb 1.39677 -33.5734
lclavicle 2.34566e-014 -4.77083e-015
lhumerus -42.2225 33.9826 27.2706
lradius 41.4207
lwrist 8.29925
lhand -16.0594 32.6329
lfingers 7.12502
lthumb 10.1429 62.3684
rfemur -8.91704 -9.86075 18.1675
rtibia 35.2688
rfoot -24.7333 -14.9833
rtoes -13.8641
lfemur -27.9364 2.76502 6.185
ltibia 31.5517
lfoot 10.1563 2.39163
ltoes -18.9323
1187
root 10.1133 17.0098 -2.2286 194.915 -120.806 -190.476
lowerback 9.93881 5.32215 3.36734
upperback 0.934651 7.51905 2.54405
thorax -4.47883 3.65249 -0.241375
lowerneck -16.6197 1.41831 -8.73241
upperneck 16.9753 1.58002 12.6713
head 7.77129 1.42692 5.90305
rclavicle -4.4329e-014 2.06736e-014
rhumerus -9.19335 -4.89343 -76.1404
rradius 35.2105
rwrist -18.8394
rhand -24.491 -3.486
rfingers 7.12502
rthumb 2.00314 -33.4563
lclavicle -4.4329e-014 2.06736e-014
lhumerus -40.9417 33.0674 28.5626
lradius 41.3793
lwrist 7.14229
lhand -15.9848 32.5432
lfingers 7.12502
lthumb 10.2148 62.2751
rfemur -9.12426 -9.51153 18.5566
rtibia 35.0835
rfoot -24.8675 -14.9967
rtoes -13.1618
lfemur -27.8105 2.70847 6.60042
ltibia 31.4048
lfoot 11.2668 2.8167
ltoes -17.0614
1188
root 10.1161 17.0183 -2.32842 195.148 -120.186 -190.726
lowerback 9.94322 5.2436 3.35699
upperback 0.973316 7.41543 2.66113
thorax -4.46011 3.60217 -0.10068
lowerneck -16.6848 1.61163 -8.55965
upperneck 17.1453 1.85514 12.365
head 7.8111 1.54124 5.80339
rclavicle -6.59965e-014 -1.74931e-014
rhumerus -9.55531 -3.5558 -76.9626
rradius 35.9865
rwrist -19.1415
rhand -23.8432 -3.38301
rfingers 7.12502
rthumb 2.62875 -33.3466
lclavicle -6.59965e-014 -1.74931e-014
lhumerus -39.7309 32.1067 29.8431
lradius 41.3629
lwrist 6.12073
lhand -15.848 32.5073
lfingers 7.12502
lthumb 10.3468 62.2328
rfemur -9.31341 -9.05368 18.9344
rtibia 34.8763
rfoot -24.9881 -15.0714
rtoes -12.4064
lfemur -27.7011 2.65585 6.97552
ltibia 31.2939
lfoot 12.366 3.26554
ltoes -14.8474
1189
root 10.1199 17.0276 -2.42661 195.367 -119.562 -190.949
lowerback 9.95492 5.17146 3.32303
upperback 1.01003 7.31807 2.77462
thorax -4.44938 3.55516 0.0475604
lowerneck -16.7518 1.8009 -8.38585
upperneck 17.3053 2.12591 12.0585
head 7.85012 1.65315 5.70303
rclavicle -8.24956e-015 -1.66979e-014
rhumerus -9.95246 -2.30404 -77.7757
rradius 36.7519
rwrist -19.4274
rhand -23.1953 -3.29435
rfingers 7.12502
rthumb 3.25448 -33.2493
lclavicle -8.24956e-015 -1.66979e-014
lhumerus -38.5811 31.1178 31.1171
lradius 41.3755
lwrist 5.2853
lhand -15.6783 32.4623
lfingers 7.12502
lthumb 10.5104 62.1795
rfemur -9.49314 -8.47349 19.286
rtibia 34.6724
rfoot -25.0897 -15.1716
rtoes -11.6215
lfemur -27.6142 2.61484 7.30015
ltibia 31.2279
lfoot 13.4276 3.72086
ltoes -12.2798
1190
root 10.1248 17.0377 -2.52234 195.562 -118.931 -191.142
lowerback 9.9721 5.1025 3.28248
upperback 1.05049 7.22381 2.87978
thorax -4.43692 3.50973 0.190255
lowerneck -16.825 1.9912 -8.20931
upperneck 17.4435 2.3986 11.7584
head 7.88445 1.76658 5.60424
rclavicle -2.52457e-014 -2.8625e-014
rhumerus -10.3734 -1.12055 -78.583
rradius 37.4968
rwrist -19.7213
rhand -22.5766 -3.22793
rfingers 7.12502
rthumb 3.852 -33.1729
lclavicle -2.52457e-014 -2.8625e-014
lhumerus -37.4913 30.1122 32.3808
lradius 41.4277
lwrist 4.67807
lhand -15.4842 32.5221
lfingers 7.12502
lthumb 10.6977 62.2297
rfemur -9.67666 -7.78813 19.5957
rtibia 34.5034
rfoot -25.1609 -15.2574
rtoes -10.8788
lfemur -27.5459 2.57406 7.56937
ltibia 31.2158
lfoot 14.418 4.18821
ltoes -9.35616
